<mxfile host="app.diagrams.net" modified="2022-07-21T12:28:48.277Z" agent="5.0 (Windows NT 10.0; Win64; x64) AppleWebKit/537.36 (KHTML, like Gecko) Chrome/103.0.0.0 Safari/537.36" etag="KboxCamF4tMRxBFg63I4" version="20.1.4" type="github">
  <diagram id="jyBaoETjNeYA_fE1jp_v" name="Page-1">
    <mxGraphModel dx="1662" dy="804" grid="1" gridSize="10" guides="1" tooltips="1" connect="1" arrows="1" fold="1" page="1" pageScale="1" pageWidth="827" pageHeight="1169" math="0" shadow="0">
      <root>
        <mxCell id="0" />
        <mxCell id="1" parent="0" />
        <mxCell id="OKHsa1LpaF0xVp7NXOUL-1" value="PRODUTTORE" style="rounded=0;whiteSpace=wrap;html=1;" parent="1" vertex="1">
          <mxGeometry x="100" y="568" width="241.08" height="60" as="geometry" />
        </mxCell>
        <mxCell id="OKHsa1LpaF0xVp7NXOUL-2" value="" style="endArrow=none;html=1;rounded=0;exitX=1;exitY=0.5;exitDx=0;exitDy=0;entryX=0;entryY=0.5;entryDx=0;entryDy=0;" parent="1" source="OKHsa1LpaF0xVp7NXOUL-1" target="OKHsa1LpaF0xVp7NXOUL-3" edge="1">
          <mxGeometry width="50" height="50" relative="1" as="geometry">
            <mxPoint x="381.08" y="598" as="sourcePoint" />
            <mxPoint x="421.08" y="598" as="targetPoint" />
          </mxGeometry>
        </mxCell>
        <mxCell id="OKHsa1LpaF0xVp7NXOUL-3" value="&lt;font style=&quot;font-size: 12px;&quot;&gt;TRANSAZIONE&lt;br&gt;(slot)&lt;br&gt;&lt;/font&gt;" style="rhombus;whiteSpace=wrap;html=1;fontSize=10;" parent="1" vertex="1">
          <mxGeometry x="407.16" y="543" width="118.92" height="110" as="geometry" />
        </mxCell>
        <mxCell id="OKHsa1LpaF0xVp7NXOUL-4" value="CONSUMATORE" style="rounded=0;whiteSpace=wrap;html=1;" parent="1" vertex="1">
          <mxGeometry x="606.08" y="568" width="120" height="60" as="geometry" />
        </mxCell>
        <mxCell id="OKHsa1LpaF0xVp7NXOUL-5" value="" style="endArrow=none;html=1;rounded=0;exitX=1;exitY=0.5;exitDx=0;exitDy=0;entryX=0;entryY=0.5;entryDx=0;entryDy=0;" parent="1" target="OKHsa1LpaF0xVp7NXOUL-4" edge="1">
          <mxGeometry width="50" height="50" relative="1" as="geometry">
            <mxPoint x="526.0799999999999" y="598" as="sourcePoint" />
            <mxPoint x="620.08" y="597.6600000000001" as="targetPoint" />
          </mxGeometry>
        </mxCell>
        <mxCell id="OKHsa1LpaF0xVp7NXOUL-19" value="" style="ellipse;whiteSpace=wrap;html=1;fillColor=#000000;" parent="1" vertex="1">
          <mxGeometry x="131.07999999999998" y="508" width="20" height="20" as="geometry" />
        </mxCell>
        <mxCell id="OKHsa1LpaF0xVp7NXOUL-21" value="" style="ellipse;whiteSpace=wrap;html=1;fillColor=#000000;" parent="1" vertex="1">
          <mxGeometry x="607.08" y="508" width="20" height="20" as="geometry" />
        </mxCell>
        <mxCell id="OKHsa1LpaF0xVp7NXOUL-26" value="id_producer" style="text;html=1;align=center;verticalAlign=middle;resizable=0;points=[];autosize=1;strokeColor=none;fillColor=none;" parent="1" vertex="1">
          <mxGeometry x="96.08" y="483" width="90" height="30" as="geometry" />
        </mxCell>
        <mxCell id="OKHsa1LpaF0xVp7NXOUL-27" value="id_consumer" style="text;html=1;align=center;verticalAlign=middle;resizable=0;points=[];autosize=1;strokeColor=none;fillColor=none;" parent="1" vertex="1">
          <mxGeometry x="572.08" y="483" width="90" height="30" as="geometry" />
        </mxCell>
        <mxCell id="OKHsa1LpaF0xVp7NXOUL-30" value="(0, N)" style="text;html=1;align=center;verticalAlign=middle;resizable=0;points=[];autosize=1;strokeColor=none;fillColor=none;" parent="1" vertex="1">
          <mxGeometry x="356.08" y="578" width="50" height="20" as="geometry" />
        </mxCell>
        <mxCell id="OKHsa1LpaF0xVp7NXOUL-31" value="(0, N)" style="text;html=1;align=center;verticalAlign=middle;resizable=0;points=[];autosize=1;strokeColor=none;fillColor=none;" parent="1" vertex="1">
          <mxGeometry x="540.0799999999999" y="578" width="50" height="20" as="geometry" />
        </mxCell>
        <mxCell id="OKHsa1LpaF0xVp7NXOUL-33" value="" style="endArrow=none;html=1;rounded=0;entryX=0.25;entryY=1;entryDx=0;entryDy=0;" parent="1" edge="1">
          <mxGeometry width="50" height="50" relative="1" as="geometry">
            <mxPoint x="104.99999999999999" y="668" as="sourcePoint" />
            <mxPoint x="104.99999999999999" y="627.9999999999999" as="targetPoint" />
          </mxGeometry>
        </mxCell>
        <mxCell id="OKHsa1LpaF0xVp7NXOUL-35" value="" style="ellipse;whiteSpace=wrap;html=1;fillColor=#FFFFFF;" parent="1" vertex="1">
          <mxGeometry x="94.99999999999999" y="668" width="20" height="20" as="geometry" />
        </mxCell>
        <mxCell id="OKHsa1LpaF0xVp7NXOUL-50" value="" style="endArrow=none;html=1;rounded=0;entryX=0.25;entryY=1;entryDx=0;entryDy=0;" parent="1" edge="1">
          <mxGeometry width="50" height="50" relative="1" as="geometry">
            <mxPoint x="124.99999999999999" y="718" as="sourcePoint" />
            <mxPoint x="124.99999999999999" y="628" as="targetPoint" />
          </mxGeometry>
        </mxCell>
        <mxCell id="OKHsa1LpaF0xVp7NXOUL-51" value="" style="ellipse;whiteSpace=wrap;html=1;fillColor=#FFFFFF;" parent="1" vertex="1">
          <mxGeometry x="114.99999999999999" y="718" width="20" height="20" as="geometry" />
        </mxCell>
        <mxCell id="OKHsa1LpaF0xVp7NXOUL-53" value="" style="endArrow=none;html=1;rounded=0;entryX=0.25;entryY=1;entryDx=0;entryDy=0;" parent="1" edge="1">
          <mxGeometry width="50" height="50" relative="1" as="geometry">
            <mxPoint x="148.83999999999997" y="757" as="sourcePoint" />
            <mxPoint x="148.9200000000002" y="627" as="targetPoint" />
          </mxGeometry>
        </mxCell>
        <mxCell id="OKHsa1LpaF0xVp7NXOUL-54" value="" style="ellipse;whiteSpace=wrap;html=1;fillColor=#FFFFFF;" parent="1" vertex="1">
          <mxGeometry x="138.91999999999996" y="757" width="20" height="20" as="geometry" />
        </mxCell>
        <mxCell id="OKHsa1LpaF0xVp7NXOUL-56" value="" style="endArrow=none;html=1;rounded=0;exitX=0.5;exitY=0;exitDx=0;exitDy=0;" parent="1" source="OKHsa1LpaF0xVp7NXOUL-57" edge="1">
          <mxGeometry width="50" height="50" relative="1" as="geometry">
            <mxPoint x="173.92000000000002" y="768" as="sourcePoint" />
            <mxPoint x="173.92000000000002" y="628" as="targetPoint" />
          </mxGeometry>
        </mxCell>
        <mxCell id="OKHsa1LpaF0xVp7NXOUL-57" value="" style="ellipse;whiteSpace=wrap;html=1;fillColor=#FFFFFF;" parent="1" vertex="1">
          <mxGeometry x="163.92000000000002" y="798" width="20" height="20" as="geometry" />
        </mxCell>
        <mxCell id="OKHsa1LpaF0xVp7NXOUL-61" value="" style="ellipse;whiteSpace=wrap;html=1;fillColor=#FFFFFF;" parent="1" vertex="1">
          <mxGeometry x="606.08" y="668" width="20" height="20" as="geometry" />
        </mxCell>
        <mxCell id="OKHsa1LpaF0xVp7NXOUL-66" value="" style="endArrow=none;html=1;rounded=0;entryX=0.5;entryY=1;entryDx=0;entryDy=0;" parent="1" edge="1">
          <mxGeometry width="50" height="50" relative="1" as="geometry">
            <mxPoint x="636.08" y="718" as="sourcePoint" />
            <mxPoint x="636.08" y="628" as="targetPoint" />
          </mxGeometry>
        </mxCell>
        <mxCell id="OKHsa1LpaF0xVp7NXOUL-67" value="" style="ellipse;whiteSpace=wrap;html=1;fillColor=#FFFFFF;" parent="1" vertex="1">
          <mxGeometry x="626.08" y="718" width="20" height="20" as="geometry" />
        </mxCell>
        <mxCell id="OKHsa1LpaF0xVp7NXOUL-85" value="" style="endArrow=none;html=1;rounded=0;" parent="1" edge="1">
          <mxGeometry width="50" height="50" relative="1" as="geometry">
            <mxPoint x="141.07999999999998" y="568" as="sourcePoint" />
            <mxPoint x="141.07999999999998" y="528" as="targetPoint" />
          </mxGeometry>
        </mxCell>
        <mxCell id="OKHsa1LpaF0xVp7NXOUL-88" value="" style="endArrow=none;html=1;rounded=0;exitX=0.504;exitY=0.067;exitDx=0;exitDy=0;exitPerimeter=0;" parent="1" edge="1">
          <mxGeometry width="50" height="50" relative="1" as="geometry">
            <mxPoint x="616.7300000000005" y="568" as="sourcePoint" />
            <mxPoint x="616.6500000000001" y="526.6600000000001" as="targetPoint" />
          </mxGeometry>
        </mxCell>
        <mxCell id="OKHsa1LpaF0xVp7NXOUL-90" value="" style="endArrow=none;html=1;rounded=0;entryX=0.25;entryY=1;entryDx=0;entryDy=0;" parent="1" edge="1">
          <mxGeometry width="50" height="50" relative="1" as="geometry">
            <mxPoint x="615.6500000000003" y="668" as="sourcePoint" />
            <mxPoint x="615.6500000000003" y="627.9999999999998" as="targetPoint" />
          </mxGeometry>
        </mxCell>
        <mxCell id="EQVx6-rRNX1-RmnsuRt2-83" value="" style="endArrow=none;html=1;rounded=0;entryX=0.408;entryY=1;entryDx=0;entryDy=0;entryPerimeter=0;" parent="1" target="OKHsa1LpaF0xVp7NXOUL-4" edge="1">
          <mxGeometry width="50" height="50" relative="1" as="geometry">
            <mxPoint x="656.0799999999999" y="758" as="sourcePoint" />
            <mxPoint x="656.0799999999999" y="668" as="targetPoint" />
          </mxGeometry>
        </mxCell>
        <mxCell id="EQVx6-rRNX1-RmnsuRt2-84" value="" style="ellipse;whiteSpace=wrap;html=1;fillColor=#FFFFFF;" parent="1" vertex="1">
          <mxGeometry x="646.08" y="758" width="20" height="20" as="geometry" />
        </mxCell>
        <mxCell id="EQVx6-rRNX1-RmnsuRt2-85" value="" style="endArrow=none;html=1;rounded=0;entryX=0.574;entryY=1;entryDx=0;entryDy=0;entryPerimeter=0;" parent="1" target="OKHsa1LpaF0xVp7NXOUL-4" edge="1">
          <mxGeometry width="50" height="50" relative="1" as="geometry">
            <mxPoint x="676.0799999999999" y="798" as="sourcePoint" />
            <mxPoint x="676.0799999999999" y="708" as="targetPoint" />
          </mxGeometry>
        </mxCell>
        <mxCell id="EQVx6-rRNX1-RmnsuRt2-86" value="" style="ellipse;whiteSpace=wrap;html=1;fillColor=#FFFFFF;" parent="1" vertex="1">
          <mxGeometry x="666.08" y="798" width="20" height="20" as="geometry" />
        </mxCell>
        <mxCell id="EQVx6-rRNX1-RmnsuRt2-87" value="" style="endArrow=none;html=1;rounded=0;entryX=0.75;entryY=1;entryDx=0;entryDy=0;" parent="1" target="OKHsa1LpaF0xVp7NXOUL-4" edge="1">
          <mxGeometry width="50" height="50" relative="1" as="geometry">
            <mxPoint x="696.0799999999999" y="838" as="sourcePoint" />
            <mxPoint x="696.0799999999999" y="748" as="targetPoint" />
          </mxGeometry>
        </mxCell>
        <mxCell id="EQVx6-rRNX1-RmnsuRt2-88" value="" style="ellipse;whiteSpace=wrap;html=1;fillColor=#FFFFFF;" parent="1" vertex="1">
          <mxGeometry x="686.08" y="838" width="20" height="20" as="geometry" />
        </mxCell>
        <mxCell id="EQVx6-rRNX1-RmnsuRt2-91" value="" style="endArrow=none;html=1;rounded=0;entryX=0.917;entryY=1;entryDx=0;entryDy=0;entryPerimeter=0;exitX=0;exitY=0.5;exitDx=0;exitDy=0;" parent="1" source="EQVx6-rRNX1-RmnsuRt2-92" target="OKHsa1LpaF0xVp7NXOUL-4" edge="1">
          <mxGeometry width="50" height="50" relative="1" as="geometry">
            <mxPoint x="716.08" y="858" as="sourcePoint" />
            <mxPoint x="716.08" y="768" as="targetPoint" />
          </mxGeometry>
        </mxCell>
        <mxCell id="EQVx6-rRNX1-RmnsuRt2-92" value="" style="ellipse;whiteSpace=wrap;html=1;fillColor=#FFFFFF;direction=south;" parent="1" vertex="1">
          <mxGeometry x="706.08" y="878" width="20" height="20" as="geometry" />
        </mxCell>
        <mxCell id="EQVx6-rRNX1-RmnsuRt2-93" value="nome" style="text;html=1;align=center;verticalAlign=middle;resizable=0;points=[];autosize=1;strokeColor=none;fillColor=none;fontSize=10;" parent="1" vertex="1">
          <mxGeometry x="591.08" y="683" width="50" height="30" as="geometry" />
        </mxCell>
        <mxCell id="EQVx6-rRNX1-RmnsuRt2-94" value="email" style="text;html=1;align=center;verticalAlign=middle;resizable=0;points=[];autosize=1;strokeColor=none;fillColor=none;fontSize=10;" parent="1" vertex="1">
          <mxGeometry x="610" y="733" width="50" height="30" as="geometry" />
        </mxCell>
        <mxCell id="EQVx6-rRNX1-RmnsuRt2-95" value="passwd" style="text;html=1;align=center;verticalAlign=middle;resizable=0;points=[];autosize=1;strokeColor=none;fillColor=none;fontSize=10;" parent="1" vertex="1">
          <mxGeometry x="626.08" y="773" width="60" height="30" as="geometry" />
        </mxCell>
        <mxCell id="EQVx6-rRNX1-RmnsuRt2-96" value="credito" style="text;html=1;align=center;verticalAlign=middle;resizable=0;points=[];autosize=1;strokeColor=none;fillColor=none;fontSize=10;" parent="1" vertex="1">
          <mxGeometry x="651.08" y="813" width="50" height="30" as="geometry" />
        </mxCell>
        <mxCell id="EQVx6-rRNX1-RmnsuRt2-97" value="privilegi" style="text;html=1;align=center;verticalAlign=middle;resizable=0;points=[];autosize=1;strokeColor=none;fillColor=none;fontSize=10;" parent="1" vertex="1">
          <mxGeometry x="666.08" y="853" width="60" height="30" as="geometry" />
        </mxCell>
        <mxCell id="EQVx6-rRNX1-RmnsuRt2-98" value="data registrazione" style="text;html=1;align=center;verticalAlign=middle;resizable=0;points=[];autosize=1;strokeColor=none;fillColor=none;fontSize=10;" parent="1" vertex="1">
          <mxGeometry x="666.08" y="893" width="100" height="30" as="geometry" />
        </mxCell>
        <mxCell id="EQVx6-rRNX1-RmnsuRt2-101" value="" style="endArrow=none;html=1;rounded=0;exitX=0.5;exitY=0;exitDx=0;exitDy=0;entryX=0.5;entryY=1;entryDx=0;entryDy=0;" parent="1" source="EQVx6-rRNX1-RmnsuRt2-102" edge="1">
          <mxGeometry width="50" height="50" relative="1" as="geometry">
            <mxPoint x="200" y="808" as="sourcePoint" />
            <mxPoint x="199.99999999999994" y="628" as="targetPoint" />
          </mxGeometry>
        </mxCell>
        <mxCell id="EQVx6-rRNX1-RmnsuRt2-102" value="" style="ellipse;whiteSpace=wrap;html=1;fillColor=#FFFFFF;" parent="1" vertex="1">
          <mxGeometry x="190" y="838" width="20" height="20" as="geometry" />
        </mxCell>
        <mxCell id="EQVx6-rRNX1-RmnsuRt2-107" value="" style="endArrow=none;html=1;rounded=0;exitX=0.5;exitY=0;exitDx=0;exitDy=0;entryX=0.534;entryY=1.029;entryDx=0;entryDy=0;entryPerimeter=0;" parent="1" source="EQVx6-rRNX1-RmnsuRt2-108" target="OKHsa1LpaF0xVp7NXOUL-1" edge="1">
          <mxGeometry width="50" height="50" relative="1" as="geometry">
            <mxPoint x="230" y="848" as="sourcePoint" />
            <mxPoint x="230" y="638" as="targetPoint" />
          </mxGeometry>
        </mxCell>
        <mxCell id="EQVx6-rRNX1-RmnsuRt2-108" value="" style="ellipse;whiteSpace=wrap;html=1;fillColor=#FFFFFF;" parent="1" vertex="1">
          <mxGeometry x="220" y="878" width="20" height="20" as="geometry" />
        </mxCell>
        <mxCell id="EQVx6-rRNX1-RmnsuRt2-109" value="" style="endArrow=none;html=1;rounded=0;exitX=0.5;exitY=0;exitDx=0;exitDy=0;" parent="1" source="EQVx6-rRNX1-RmnsuRt2-110" edge="1">
          <mxGeometry width="50" height="50" relative="1" as="geometry">
            <mxPoint x="306.08" y="969" as="sourcePoint" />
            <mxPoint x="303" y="628" as="targetPoint" />
          </mxGeometry>
        </mxCell>
        <mxCell id="EQVx6-rRNX1-RmnsuRt2-110" value="" style="ellipse;whiteSpace=wrap;html=1;fillColor=#FFFFFF;" parent="1" vertex="1">
          <mxGeometry x="296.08" y="999" width="20" height="20" as="geometry" />
        </mxCell>
        <mxCell id="EQVx6-rRNX1-RmnsuRt2-111" value="" style="endArrow=none;html=1;rounded=0;exitX=0.5;exitY=0;exitDx=0;exitDy=0;" parent="1" source="EQVx6-rRNX1-RmnsuRt2-112" edge="1">
          <mxGeometry width="50" height="50" relative="1" as="geometry">
            <mxPoint x="330" y="1009" as="sourcePoint" />
            <mxPoint x="329" y="628" as="targetPoint" />
          </mxGeometry>
        </mxCell>
        <mxCell id="EQVx6-rRNX1-RmnsuRt2-112" value="" style="ellipse;whiteSpace=wrap;html=1;fillColor=#FFFFFF;" parent="1" vertex="1">
          <mxGeometry x="320" y="1039" width="20" height="20" as="geometry" />
        </mxCell>
        <mxCell id="EQVx6-rRNX1-RmnsuRt2-114" value="nome" style="text;html=1;align=center;verticalAlign=middle;resizable=0;points=[];autosize=1;strokeColor=none;fillColor=none;fontSize=10;" parent="1" vertex="1">
          <mxGeometry x="80" y="683" width="50" height="30" as="geometry" />
        </mxCell>
        <mxCell id="EQVx6-rRNX1-RmnsuRt2-115" value="email" style="text;html=1;align=center;verticalAlign=middle;resizable=0;points=[];autosize=1;strokeColor=none;fillColor=none;fontSize=10;" parent="1" vertex="1">
          <mxGeometry x="99.99999999999999" y="733" width="50" height="30" as="geometry" />
        </mxCell>
        <mxCell id="EQVx6-rRNX1-RmnsuRt2-116" value="passwd" style="text;html=1;align=center;verticalAlign=middle;resizable=0;points=[];autosize=1;strokeColor=none;fillColor=none;fontSize=10;" parent="1" vertex="1">
          <mxGeometry x="118.92" y="772" width="60" height="30" as="geometry" />
        </mxCell>
        <mxCell id="EQVx6-rRNX1-RmnsuRt2-117" value="fonte" style="text;html=1;align=center;verticalAlign=middle;resizable=0;points=[];autosize=1;strokeColor=none;fillColor=none;fontSize=10;" parent="1" vertex="1">
          <mxGeometry x="148.92000000000002" y="813" width="50" height="30" as="geometry" />
        </mxCell>
        <mxCell id="EQVx6-rRNX1-RmnsuRt2-118" value="emissioni" style="text;html=1;align=center;verticalAlign=middle;resizable=0;points=[];autosize=1;strokeColor=none;fillColor=none;fontSize=10;" parent="1" vertex="1">
          <mxGeometry x="165" y="853" width="70" height="30" as="geometry" />
        </mxCell>
        <mxCell id="EQVx6-rRNX1-RmnsuRt2-119" value="privilegi" style="text;html=1;align=center;verticalAlign=middle;resizable=0;points=[];autosize=1;strokeColor=none;fillColor=none;fontSize=10;" parent="1" vertex="1">
          <mxGeometry x="200" y="893" width="60" height="30" as="geometry" />
        </mxCell>
        <mxCell id="EQVx6-rRNX1-RmnsuRt2-120" value="data registrazione" style="text;html=1;align=center;verticalAlign=middle;resizable=0;points=[];autosize=1;strokeColor=none;fillColor=none;fontSize=10;" parent="1" vertex="1">
          <mxGeometry x="256.08" y="1014" width="100" height="30" as="geometry" />
        </mxCell>
        <mxCell id="EQVx6-rRNX1-RmnsuRt2-121" value="accetta taglio richieste" style="text;html=1;align=center;verticalAlign=middle;resizable=0;points=[];autosize=1;strokeColor=none;fillColor=none;fontSize=10;" parent="1" vertex="1">
          <mxGeometry x="280" y="1050" width="120" height="30" as="geometry" />
        </mxCell>
        <mxCell id="EQVx6-rRNX1-RmnsuRt2-124" value="" style="endArrow=none;html=1;rounded=0;exitX=0.5;exitY=0;exitDx=0;exitDy=0;entryX=0.658;entryY=1.029;entryDx=0;entryDy=0;entryPerimeter=0;" parent="1" source="EQVx6-rRNX1-RmnsuRt2-125" target="OKHsa1LpaF0xVp7NXOUL-1" edge="1">
          <mxGeometry width="50" height="50" relative="1" as="geometry">
            <mxPoint x="260" y="886.26" as="sourcePoint" />
            <mxPoint x="258.7367200000001" y="667.9999999999999" as="targetPoint" />
          </mxGeometry>
        </mxCell>
        <mxCell id="EQVx6-rRNX1-RmnsuRt2-125" value="" style="ellipse;whiteSpace=wrap;html=1;fillColor=#FFFFFF;" parent="1" vertex="1">
          <mxGeometry x="250" y="916.26" width="20" height="20" as="geometry" />
        </mxCell>
        <mxCell id="EQVx6-rRNX1-RmnsuRt2-126" value="" style="endArrow=none;html=1;rounded=0;exitX=0.5;exitY=0;exitDx=0;exitDy=0;" parent="1" source="EQVx6-rRNX1-RmnsuRt2-127" edge="1">
          <mxGeometry width="50" height="50" relative="1" as="geometry">
            <mxPoint x="280" y="926.26" as="sourcePoint" />
            <mxPoint x="277" y="628" as="targetPoint" />
          </mxGeometry>
        </mxCell>
        <mxCell id="EQVx6-rRNX1-RmnsuRt2-127" value="" style="ellipse;whiteSpace=wrap;html=1;fillColor=#FFFFFF;" parent="1" vertex="1">
          <mxGeometry x="270" y="956.26" width="20" height="20" as="geometry" />
        </mxCell>
        <mxCell id="EQVx6-rRNX1-RmnsuRt2-130" value="slot 0 ..." style="text;html=1;align=center;verticalAlign=middle;resizable=0;points=[];autosize=1;strokeColor=none;fillColor=none;fontSize=10;" parent="1" vertex="1">
          <mxGeometry x="230" y="936.26" width="60" height="30" as="geometry" />
        </mxCell>
        <mxCell id="EQVx6-rRNX1-RmnsuRt2-131" value="... slot 23" style="text;html=1;align=center;verticalAlign=middle;resizable=0;points=[];autosize=1;strokeColor=none;fillColor=none;fontSize=10;" parent="1" vertex="1">
          <mxGeometry x="246" y="968" width="60" height="30" as="geometry" />
        </mxCell>
        <mxCell id="EQVx6-rRNX1-RmnsuRt2-151" value="" style="ellipse;whiteSpace=wrap;html=1;fillColor=#FFFFFF;" parent="1" vertex="1">
          <mxGeometry x="400" y="669" width="20" height="20" as="geometry" />
        </mxCell>
        <mxCell id="EQVx6-rRNX1-RmnsuRt2-154" value="" style="ellipse;whiteSpace=wrap;html=1;fillColor=#FFFFFF;" parent="1" vertex="1">
          <mxGeometry x="420" y="698" width="20" height="20" as="geometry" />
        </mxCell>
        <mxCell id="EQVx6-rRNX1-RmnsuRt2-155" value="" style="ellipse;whiteSpace=wrap;html=1;fillColor=#FFFFFF;" parent="1" vertex="1">
          <mxGeometry x="436.62" y="737" width="20" height="20" as="geometry" />
        </mxCell>
        <mxCell id="EQVx6-rRNX1-RmnsuRt2-156" value="" style="ellipse;whiteSpace=wrap;html=1;fillColor=#FFFFFF;" parent="1" vertex="1">
          <mxGeometry x="456.62" y="777" width="20" height="20" as="geometry" />
        </mxCell>
        <mxCell id="EQVx6-rRNX1-RmnsuRt2-157" value="" style="ellipse;whiteSpace=wrap;html=1;fillColor=#FFFFFF;" parent="1" vertex="1">
          <mxGeometry x="475" y="818" width="20" height="20" as="geometry" />
        </mxCell>
        <mxCell id="EQVx6-rRNX1-RmnsuRt2-158" value="" style="ellipse;whiteSpace=wrap;html=1;fillColor=#FFFFFF;" parent="1" vertex="1">
          <mxGeometry x="494" y="857" width="20" height="20" as="geometry" />
        </mxCell>
        <mxCell id="EQVx6-rRNX1-RmnsuRt2-162" value="" style="endArrow=none;html=1;rounded=0;" parent="1" edge="1">
          <mxGeometry width="50" height="50" relative="1" as="geometry">
            <mxPoint x="410.74000000000035" y="668" as="sourcePoint" />
            <mxPoint x="410" y="600" as="targetPoint" />
          </mxGeometry>
        </mxCell>
        <mxCell id="EQVx6-rRNX1-RmnsuRt2-164" value="" style="endArrow=none;html=1;rounded=0;entryX=0.189;entryY=0.682;entryDx=0;entryDy=0;entryPerimeter=0;" parent="1" target="OKHsa1LpaF0xVp7NXOUL-3" edge="1">
          <mxGeometry width="50" height="50" relative="1" as="geometry">
            <mxPoint x="430.37000000000023" y="698" as="sourcePoint" />
            <mxPoint x="429.63" y="630.0000000000001" as="targetPoint" />
          </mxGeometry>
        </mxCell>
        <mxCell id="EQVx6-rRNX1-RmnsuRt2-165" value="" style="endArrow=none;html=1;rounded=0;" parent="1" edge="1">
          <mxGeometry width="50" height="50" relative="1" as="geometry">
            <mxPoint x="446.99000000000024" y="736" as="sourcePoint" />
            <mxPoint x="447" y="636" as="targetPoint" />
          </mxGeometry>
        </mxCell>
        <mxCell id="EQVx6-rRNX1-RmnsuRt2-166" value="" style="endArrow=none;html=1;rounded=0;entryX=0.5;entryY=1;entryDx=0;entryDy=0;exitX=0.5;exitY=0;exitDx=0;exitDy=0;" parent="1" source="EQVx6-rRNX1-RmnsuRt2-156" target="OKHsa1LpaF0xVp7NXOUL-3" edge="1">
          <mxGeometry width="50" height="50" relative="1" as="geometry">
            <mxPoint x="470.00000000000034" y="748" as="sourcePoint" />
            <mxPoint x="470.00000000000034" y="707.9999999999999" as="targetPoint" />
          </mxGeometry>
        </mxCell>
        <mxCell id="EQVx6-rRNX1-RmnsuRt2-167" value="" style="endArrow=none;html=1;rounded=0;exitX=0.5;exitY=0;exitDx=0;exitDy=0;" parent="1" edge="1">
          <mxGeometry width="50" height="50" relative="1" as="geometry">
            <mxPoint x="484.66000000000014" y="818" as="sourcePoint" />
            <mxPoint x="485" y="637" as="targetPoint" />
          </mxGeometry>
        </mxCell>
        <mxCell id="EQVx6-rRNX1-RmnsuRt2-168" value="" style="endArrow=none;html=1;rounded=0;exitX=0.5;exitY=0;exitDx=0;exitDy=0;" parent="1" edge="1">
          <mxGeometry width="50" height="50" relative="1" as="geometry">
            <mxPoint x="503.7100000000001" y="856.5" as="sourcePoint" />
            <mxPoint x="502.92" y="621" as="targetPoint" />
          </mxGeometry>
        </mxCell>
        <mxCell id="EQVx6-rRNX1-RmnsuRt2-169" value="" style="ellipse;whiteSpace=wrap;html=1;fillColor=#FFFFFF;" parent="1" vertex="1">
          <mxGeometry x="514" y="896.26" width="20" height="20" as="geometry" />
        </mxCell>
        <mxCell id="EQVx6-rRNX1-RmnsuRt2-170" value="" style="endArrow=none;html=1;rounded=0;exitX=0.5;exitY=0;exitDx=0;exitDy=0;entryX=0.963;entryY=0.53;entryDx=0;entryDy=0;entryPerimeter=0;" parent="1" target="OKHsa1LpaF0xVp7NXOUL-3" edge="1">
          <mxGeometry width="50" height="50" relative="1" as="geometry">
            <mxPoint x="523.7100000000003" y="895.76" as="sourcePoint" />
            <mxPoint x="522.9200000000001" y="660.26" as="targetPoint" />
          </mxGeometry>
        </mxCell>
        <mxCell id="EQVx6-rRNX1-RmnsuRt2-171" value="emissioni" style="text;html=1;align=center;verticalAlign=middle;resizable=0;points=[];autosize=1;strokeColor=none;fillColor=none;fontSize=12;" parent="1" vertex="1">
          <mxGeometry x="372" y="683" width="70" height="30" as="geometry" />
        </mxCell>
        <mxCell id="EQVx6-rRNX1-RmnsuRt2-172" value="fonte" style="text;html=1;align=center;verticalAlign=middle;resizable=0;points=[];autosize=1;strokeColor=none;fillColor=none;fontSize=12;" parent="1" vertex="1">
          <mxGeometry x="405" y="707" width="50" height="30" as="geometry" />
        </mxCell>
        <mxCell id="EQVx6-rRNX1-RmnsuRt2-174" value="slot selezionato" style="text;html=1;align=center;verticalAlign=middle;resizable=0;points=[];autosize=1;strokeColor=none;fillColor=none;fontSize=12;" parent="1" vertex="1">
          <mxGeometry x="391.62" y="748" width="110" height="30" as="geometry" />
        </mxCell>
        <mxCell id="EQVx6-rRNX1-RmnsuRt2-175" value="kw acquistati" style="text;html=1;align=center;verticalAlign=middle;resizable=0;points=[];autosize=1;strokeColor=none;fillColor=none;fontSize=12;" parent="1" vertex="1">
          <mxGeometry x="421.62" y="788" width="90" height="30" as="geometry" />
        </mxCell>
        <mxCell id="EQVx6-rRNX1-RmnsuRt2-176" value="costo slot" style="text;html=1;align=center;verticalAlign=middle;resizable=0;points=[];autosize=1;strokeColor=none;fillColor=none;fontSize=12;" parent="1" vertex="1">
          <mxGeometry x="450" y="828" width="70" height="30" as="geometry" />
        </mxCell>
        <mxCell id="EQVx6-rRNX1-RmnsuRt2-177" value="data acquisto" style="text;html=1;align=center;verticalAlign=middle;resizable=0;points=[];autosize=1;strokeColor=none;fillColor=none;fontSize=12;" parent="1" vertex="1">
          <mxGeometry x="459" y="868" width="90" height="30" as="geometry" />
        </mxCell>
        <mxCell id="EQVx6-rRNX1-RmnsuRt2-178" value="data prenotazione" style="text;html=1;align=center;verticalAlign=middle;resizable=0;points=[];autosize=1;strokeColor=none;fillColor=none;fontSize=12;" parent="1" vertex="1">
          <mxGeometry x="464" y="911.26" width="120" height="30" as="geometry" />
        </mxCell>
        <mxCell id="EQVx6-rRNX1-RmnsuRt2-179" value="&lt;font style=&quot;font-size: 12px;&quot;&gt;RICARICA&lt;br&gt;&lt;/font&gt;" style="rhombus;whiteSpace=wrap;html=1;fontSize=10;" parent="1" vertex="1">
          <mxGeometry x="606.08" y="388" width="118.92" height="110" as="geometry" />
        </mxCell>
        <mxCell id="EQVx6-rRNX1-RmnsuRt2-180" value="AMMINISTRATORE" style="rounded=0;whiteSpace=wrap;html=1;" parent="1" vertex="1">
          <mxGeometry x="605.0000000000001" y="268" width="120" height="60" as="geometry" />
        </mxCell>
        <mxCell id="EQVx6-rRNX1-RmnsuRt2-183" value="" style="endArrow=none;html=1;rounded=0;fontSize=12;curved=1;exitX=0.5;exitY=0;exitDx=0;exitDy=0;entryX=0.5;entryY=1;entryDx=0;entryDy=0;" parent="1" source="OKHsa1LpaF0xVp7NXOUL-4" target="EQVx6-rRNX1-RmnsuRt2-179" edge="1">
          <mxGeometry width="50" height="50" relative="1" as="geometry">
            <mxPoint x="676.08" y="523" as="sourcePoint" />
            <mxPoint x="726.08" y="473" as="targetPoint" />
          </mxGeometry>
        </mxCell>
        <mxCell id="EQVx6-rRNX1-RmnsuRt2-184" value="" style="endArrow=none;html=1;rounded=0;fontSize=12;curved=1;exitX=0.5;exitY=0;exitDx=0;exitDy=0;entryX=0.5;entryY=1;entryDx=0;entryDy=0;" parent="1" source="EQVx6-rRNX1-RmnsuRt2-179" target="EQVx6-rRNX1-RmnsuRt2-180" edge="1">
          <mxGeometry width="50" height="50" relative="1" as="geometry">
            <mxPoint x="715.5799999999999" y="408" as="sourcePoint" />
            <mxPoint x="716.04" y="308" as="targetPoint" />
          </mxGeometry>
        </mxCell>
        <mxCell id="EQVx6-rRNX1-RmnsuRt2-185" value="" style="ellipse;whiteSpace=wrap;html=1;fillColor=#000000;" parent="1" vertex="1">
          <mxGeometry x="760" y="223" width="20" height="20" as="geometry" />
        </mxCell>
        <mxCell id="EQVx6-rRNX1-RmnsuRt2-186" value="id_admin" style="text;html=1;align=center;verticalAlign=middle;resizable=0;points=[];autosize=1;strokeColor=none;fillColor=none;" parent="1" vertex="1">
          <mxGeometry x="735" y="198" width="70" height="30" as="geometry" />
        </mxCell>
        <mxCell id="EQVx6-rRNX1-RmnsuRt2-187" value="" style="endArrow=none;html=1;rounded=0;exitX=0.997;exitY=0.347;exitDx=0;exitDy=0;exitPerimeter=0;" parent="1" source="EQVx6-rRNX1-RmnsuRt2-180" target="EQVx6-rRNX1-RmnsuRt2-185" edge="1">
          <mxGeometry width="50" height="50" relative="1" as="geometry">
            <mxPoint x="740.0800000000004" y="289.34000000000003" as="sourcePoint" />
            <mxPoint x="740" y="247.99999999999997" as="targetPoint" />
          </mxGeometry>
        </mxCell>
        <mxCell id="EQVx6-rRNX1-RmnsuRt2-188" value="" style="ellipse;whiteSpace=wrap;html=1;fillColor=#000000;" parent="1" vertex="1">
          <mxGeometry x="409" y="508" width="20" height="20" as="geometry" />
        </mxCell>
        <mxCell id="EQVx6-rRNX1-RmnsuRt2-189" value="id_transazione" style="text;html=1;align=center;verticalAlign=middle;resizable=0;points=[];autosize=1;strokeColor=none;fillColor=none;" parent="1" vertex="1">
          <mxGeometry x="369" y="483" width="100" height="30" as="geometry" />
        </mxCell>
        <mxCell id="EQVx6-rRNX1-RmnsuRt2-190" value="" style="endArrow=none;html=1;rounded=0;exitX=0.096;exitY=0.409;exitDx=0;exitDy=0;exitPerimeter=0;" parent="1" source="OKHsa1LpaF0xVp7NXOUL-3" edge="1">
          <mxGeometry width="50" height="50" relative="1" as="geometry">
            <mxPoint x="418.65000000000043" y="568" as="sourcePoint" />
            <mxPoint x="418.57000000000005" y="526.6600000000001" as="targetPoint" />
          </mxGeometry>
        </mxCell>
        <mxCell id="EQVx6-rRNX1-RmnsuRt2-191" value="" style="ellipse;whiteSpace=wrap;html=1;fillColor=#FFFFFF;" parent="1" vertex="1">
          <mxGeometry x="696" y="218" width="20" height="20" as="geometry" />
        </mxCell>
        <mxCell id="EQVx6-rRNX1-RmnsuRt2-192" value="" style="endArrow=none;html=1;rounded=0;" parent="1" edge="1">
          <mxGeometry width="50" height="50" relative="1" as="geometry">
            <mxPoint x="706.0800000000004" y="268" as="sourcePoint" />
            <mxPoint x="706" y="238" as="targetPoint" />
          </mxGeometry>
        </mxCell>
        <mxCell id="EQVx6-rRNX1-RmnsuRt2-193" value="nome" style="text;html=1;align=center;verticalAlign=middle;resizable=0;points=[];autosize=1;strokeColor=none;fillColor=none;fontSize=10;" parent="1" vertex="1">
          <mxGeometry x="681" y="193" width="50" height="30" as="geometry" />
        </mxCell>
        <mxCell id="EQVx6-rRNX1-RmnsuRt2-194" value="" style="ellipse;whiteSpace=wrap;html=1;fillColor=#FFFFFF;" parent="1" vertex="1">
          <mxGeometry x="676" y="178" width="20" height="20" as="geometry" />
        </mxCell>
        <mxCell id="EQVx6-rRNX1-RmnsuRt2-195" value="" style="endArrow=none;html=1;rounded=0;entryX=0.25;entryY=1;entryDx=0;entryDy=0;" parent="1" edge="1">
          <mxGeometry width="50" height="50" relative="1" as="geometry">
            <mxPoint x="687" y="268" as="sourcePoint" />
            <mxPoint x="686.0800000000004" y="198.99999999999972" as="targetPoint" />
          </mxGeometry>
        </mxCell>
        <mxCell id="EQVx6-rRNX1-RmnsuRt2-196" value="" style="ellipse;whiteSpace=wrap;html=1;fillColor=#FFFFFF;" parent="1" vertex="1">
          <mxGeometry x="651.08" y="137" width="20" height="20" as="geometry" />
        </mxCell>
        <mxCell id="EQVx6-rRNX1-RmnsuRt2-197" value="" style="endArrow=none;html=1;rounded=0;entryX=0.25;entryY=1;entryDx=0;entryDy=0;" parent="1" edge="1">
          <mxGeometry width="50" height="50" relative="1" as="geometry">
            <mxPoint x="661" y="268" as="sourcePoint" />
            <mxPoint x="661.1600000000004" y="157.99999999999972" as="targetPoint" />
          </mxGeometry>
        </mxCell>
        <mxCell id="EQVx6-rRNX1-RmnsuRt2-198" value="" style="ellipse;whiteSpace=wrap;html=1;fillColor=#FFFFFF;" parent="1" vertex="1">
          <mxGeometry x="626.08" y="96.5" width="20" height="20" as="geometry" />
        </mxCell>
        <mxCell id="EQVx6-rRNX1-RmnsuRt2-199" value="" style="endArrow=none;html=1;rounded=0;entryX=0.25;entryY=1;entryDx=0;entryDy=0;" parent="1" edge="1">
          <mxGeometry width="50" height="50" relative="1" as="geometry">
            <mxPoint x="636" y="268" as="sourcePoint" />
            <mxPoint x="635.8400000000004" y="116.49999999999972" as="targetPoint" />
          </mxGeometry>
        </mxCell>
        <mxCell id="EQVx6-rRNX1-RmnsuRt2-200" value="" style="ellipse;whiteSpace=wrap;html=1;fillColor=#FFFFFF;" parent="1" vertex="1">
          <mxGeometry x="605" y="56.5" width="20" height="20" as="geometry" />
        </mxCell>
        <mxCell id="EQVx6-rRNX1-RmnsuRt2-201" value="" style="endArrow=none;html=1;rounded=0;entryX=0.25;entryY=1;entryDx=0;entryDy=0;" parent="1" edge="1">
          <mxGeometry width="50" height="50" relative="1" as="geometry">
            <mxPoint x="616" y="268" as="sourcePoint" />
            <mxPoint x="615.0800000000004" y="77.49999999999972" as="targetPoint" />
          </mxGeometry>
        </mxCell>
        <mxCell id="EQVx6-rRNX1-RmnsuRt2-202" value="email" style="text;html=1;align=center;verticalAlign=middle;resizable=0;points=[];autosize=1;strokeColor=none;fillColor=none;fontSize=10;" parent="1" vertex="1">
          <mxGeometry x="661" y="157" width="50" height="30" as="geometry" />
        </mxCell>
        <mxCell id="EQVx6-rRNX1-RmnsuRt2-203" value="passwd" style="text;html=1;align=center;verticalAlign=middle;resizable=0;points=[];autosize=1;strokeColor=none;fillColor=none;fontSize=10;" parent="1" vertex="1">
          <mxGeometry x="631.08" y="116.5" width="60" height="30" as="geometry" />
        </mxCell>
        <mxCell id="EQVx6-rRNX1-RmnsuRt2-204" value="privilegi" style="text;html=1;align=center;verticalAlign=middle;resizable=0;points=[];autosize=1;strokeColor=none;fillColor=none;fontSize=10;" parent="1" vertex="1">
          <mxGeometry x="606.08" y="76.5" width="60" height="30" as="geometry" />
        </mxCell>
        <mxCell id="EQVx6-rRNX1-RmnsuRt2-205" value="data registrazione" style="text;html=1;align=center;verticalAlign=middle;resizable=0;points=[];autosize=1;strokeColor=none;fillColor=none;fontSize=10;" parent="1" vertex="1">
          <mxGeometry x="563" y="30" width="100" height="30" as="geometry" />
        </mxCell>
        <mxCell id="EQVx6-rRNX1-RmnsuRt2-206" value="(1,1)" style="text;html=1;align=center;verticalAlign=middle;resizable=0;points=[];autosize=1;strokeColor=none;fillColor=none;fontSize=12;" parent="1" vertex="1">
          <mxGeometry x="661" y="325" width="50" height="30" as="geometry" />
        </mxCell>
        <mxCell id="EQVx6-rRNX1-RmnsuRt2-207" value="(1,N)" style="text;html=1;align=center;verticalAlign=middle;resizable=0;points=[];autosize=1;strokeColor=none;fillColor=none;fontSize=12;" parent="1" vertex="1">
          <mxGeometry x="658" y="543" width="50" height="30" as="geometry" />
        </mxCell>
      </root>
    </mxGraphModel>
  </diagram>
</mxfile>
